<?xml version="1.0" encoding="UTF-8" standalone="no"?>
<!-- Created with Inkscape (http://www.inkscape.org/) -->

<svg
   width="74.917091mm"
   height="53.20253mm"
   viewBox="0 0 74.917091 53.20253"
   version="1.1"
   id="svg1150"
   inkscape:version="1.1 (c4e8f9e, 2021-05-24)"
   sodipodi:docname="idee_logo.svg"
   xmlns:inkscape="http://www.inkscape.org/namespaces/inkscape"
   xmlns:sodipodi="http://sodipodi.sourceforge.net/DTD/sodipodi-0.dtd"
   xmlns="http://www.w3.org/2000/svg"
   xmlns:svg="http://www.w3.org/2000/svg">
  <sodipodi:namedview
     id="namedview1152"
     pagecolor="#ffffff"
     bordercolor="#666666"
     borderopacity="1.0"
     inkscape:pageshadow="2"
     inkscape:pageopacity="0.0"
     inkscape:pagecheckerboard="0"
     inkscape:document-units="mm"
     showgrid="false"
     lock-margins="true"
     fit-margin-top="5"
     fit-margin-left="5"
     fit-margin-right="5"
     fit-margin-bottom="5"
     inkscape:zoom="1.0284499"
     inkscape:cx="172.10366"
     inkscape:cy="127.86233"
     inkscape:window-width="1323"
     inkscape:window-height="847"
     inkscape:window-x="0"
     inkscape:window-y="25"
     inkscape:window-maximized="0"
     inkscape:current-layer="layer1" />
  <defs
     id="defs1147" />
  <g
     inkscape:label="Calque 1"
     inkscape:groupmode="layer"
     id="layer1"
     transform="translate(-72.924901,-120.90935)">
    <path
       style="fill:#000000;stroke-width:0.133835"
       d="m 101.01363,168.92313 c 3.34473,-0.69087 5.98531,-2.85321 7.36779,-6.0334 0.24778,-0.56998 0.51923,-1.46247 0.60323,-1.98332 0.2785,-1.7269 0.11952,-1.54925 1.38643,-1.54925 h 1.11656 l 0.0922,0.9001 c 0.32625,3.18433 2.56734,6.28211 5.63274,7.78589 6.12238,3.00344 13.27503,-0.67426 14.45341,-7.43155 0.11084,-0.63562 0.20153,-1.17789 0.20153,-1.20506 0,-0.0272 0.50228,-0.0494 1.11619,-0.0494 5.29564,0 9.85828,-4.7076 9.85828,-10.17147 0,-2.88663 -1.06777,-5.26042 -3.31875,-7.37798 -3.67364,-3.4559 -9.35204,-3.58784 -13.19757,-0.30666 -2.04876,1.7481 -3.25508,3.95489 -3.63376,6.64742 l -0.0894,0.63572 h -0.92165 c -0.50691,0 -0.96682,0.0151 -1.02203,0.0335 -0.0552,0.0184 -0.11902,-0.17734 -0.14181,-0.43497 -0.0766,-0.86613 -0.4267,-2.16275 -0.83525,-3.0936 -2.17109,-4.94662 -7.7962,-7.36608 -12.83157,-5.51909 -2.23727,0.82064 -4.47454,2.84961 -5.53454,5.01924 -0.58869,1.20494 -1.03322,2.74357 -1.03322,3.57622 v 0.39836 l -1.07099,0.0436 c -1.01926,0.0416 -1.07098,0.0298 -1.07068,-0.24316 8e-4,-0.72116 -0.47357,-2.48849 -0.93338,-3.47752 -1.23695,-2.66058 -3.24468,-4.45737 -6.08609,-5.44664 -1.13366,-0.39469 -1.33086,-0.42176 -3.08477,-0.4234 -1.5931,-0.001 -2.024,0.0452 -2.87745,0.31167 -3.5127,1.09684 -6.09405,3.82417 -6.97722,7.37181 -0.41829,1.68023 -0.31875,3.91468 0.24646,5.53248 0.52877,1.5135 1.10342,2.46836 2.17699,3.61739 2.00493,2.14585 4.52821,3.29851 7.23438,3.30475 l 1.00768,0.002 0.17313,1.10027 c 0.45127,2.86798 2.0535,5.34322 4.50327,6.95698 2.23197,1.4703 4.98809,2.02548 7.48984,1.50873 z m -3.74941,-1.8608 c -1.9126,-0.5413 -3.14547,-1.27723 -4.38795,-2.61925 -1.2032,-1.2996 -2.0961,-3.35139 -2.0961,-4.81664 0,-0.45803 0.0519,-0.57558 0.28052,-0.63537 0.62094,-0.16238 2.3782,-1.10621 3.16134,-1.69797 1.65774,-1.25261 3.14574,-3.53859 3.62069,-5.56237 l 0.22038,-0.93902 h 1.08838 1.08839 l 0.17129,0.76955 c 0.65053,2.92257 2.80929,5.567 5.65976,6.93305 0.52947,0.25374 1.04835,0.46134 1.15308,0.46134 0.28197,0 0.11095,1.49884 -0.30869,2.70553 -0.5944,1.70919 -2.11557,3.57916 -3.63674,4.47062 -1.61507,0.9465 -4.42295,1.38093 -6.01435,0.93053 z m 22.75891,-0.002 c -1.47231,-0.30562 -2.89584,-1.03762 -4.0962,-2.10631 -0.65338,-0.58171 -1.67637,-2.06542 -2.02568,-2.93796 -0.32255,-0.80574 -0.69362,-2.72652 -0.56647,-2.93226 0.0304,-0.0492 0.40856,-0.21827 0.84033,-0.3757 2.8355,-1.03388 5.34669,-3.9264 6.13569,-7.06741 l 0.2133,-0.84916 h 1.12133 c 1.04924,0 1.12132,0.018 1.12132,0.28053 0,0.74014 0.83901,2.82337 1.56548,3.88707 1.19119,1.74412 3.26963,3.3229 5.09282,3.86849 0.54436,0.16291 0.5688,0.19291 0.5688,0.69852 0,0.79296 -0.36055,2.05252 -0.90934,3.17671 -0.69938,1.43268 -2.2634,2.99748 -3.66587,3.66771 -1.74321,0.83306 -3.57631,1.0674 -5.39551,0.68977 z M 86.2967,157.33437 c -4.65106,-1.06018 -7.51985,-5.76557 -6.26888,-10.28223 0.7808,-2.81906 3.19384,-5.15241 6.03275,-5.8335 1.35936,-0.32613 3.37901,-0.22238 4.61809,0.23723 3.09314,1.14732 5.41799,4.0316 5.49548,6.81784 l 0.0264,0.94763 -0.66917,0.23048 c -2.95074,1.01627 -5.71119,4.18372 -6.35692,7.29417 l -0.15306,0.73729 -1.09465,-0.0134 c -0.60206,-0.007 -1.33556,-0.0683 -1.62999,-0.13547 z m 22.68657,-0.57982 c -0.64128,-3.08904 -3.09594,-5.98736 -6.09811,-7.20028 l -0.79592,-0.32156 0.0415,-0.72623 c 0.18166,-3.18052 2.57549,-6.07585 5.98109,-7.23413 0.34345,-0.11681 1.15899,-0.18199 2.2752,-0.18185 1.50461,1.3e-4 1.85681,0.0435 2.60482,0.32051 1.73203,0.64135 3.13142,1.67367 4.07592,3.00679 0.95083,1.34205 1.38469,2.4532 1.61383,4.13316 l 0.0869,0.63688 -0.64409,0.26443 c -3.22065,1.32221 -5.45714,3.82728 -6.30273,7.05966 l -0.2366,0.90444 -1.22422,0.0383 -1.22423,0.0383 z m 22.62364,0.22685 c -0.0767,-0.27603 -0.14046,-0.59222 -0.14176,-0.70263 -0.004,-0.36526 -0.8706,-2.19492 -1.4264,-3.01273 -1.11629,-1.6425 -3.03773,-3.1403 -4.82951,-3.76468 -0.69185,-0.24109 -0.70263,-0.25317 -0.70263,-0.78757 0,-0.2985 0.0927,-0.90167 0.20591,-1.34039 0.79514,-3.08023 3.11021,-5.37552 6.2165,-6.16337 1.19038,-0.30192 3.35287,-0.1989 4.53306,0.21595 1.10621,0.38884 2.66007,1.43485 3.43503,2.31235 2.9418,3.33108 2.84726,7.96575 -0.22885,11.21793 -1.56615,1.65581 -3.56481,2.52702 -5.7972,2.52702 h -1.12477 z m -40.50032,-0.4015 c 0.18362,-0.77001 1.0025,-2.27095 1.63015,-2.98793 0.78487,-0.8966 1.48809,-1.45619 2.41251,-1.91977 0.93064,-0.4667 1.00932,-0.44983 0.79079,0.16957 -0.69329,1.96499 -2.19265,3.75516 -3.91235,4.67121 -0.44911,0.23923 -0.85983,0.43496 -0.91271,0.43496 -0.0529,0 -0.0567,-0.16562 -0.008,-0.36804 z m 15.16154,-0.0685 c -1.07441,-0.60235 -1.98743,-1.42593 -2.72208,-2.45545 -0.81993,-1.14904 -1.48371,-2.72907 -1.14649,-2.72907 0.20753,0 1.74282,1.00473 2.32035,1.51849 0.73995,0.65824 1.54651,1.7271 1.88392,2.49656 0.41766,0.95248 0.6343,1.60616 0.53174,1.60443 -0.0519,-9.4e-4 -0.44229,-0.19661 -0.86744,-0.43496 z m 7.46009,-0.0855 c 0.65924,-1.86851 2.02213,-3.54726 3.68403,-4.53786 0.53194,-0.31708 0.99135,-0.55232 1.0209,-0.52276 0.0741,0.0741 -0.2628,1.0033 -0.62155,1.71452 -0.43892,0.87017 -1.62859,2.29445 -2.36386,2.83003 -0.58122,0.42337 -1.66934,1.03817 -1.83742,1.03817 -0.0365,0 0.0166,-0.23494 0.1179,-0.5221 z m 15.03956,0.10384 c -1.61229,-0.87492 -3.21552,-2.70295 -3.81218,-4.34675 -0.17091,-0.47083 -0.28897,-0.85606 -0.26237,-0.85606 0.2247,0 1.23235,0.53507 1.88782,1.00245 1.28506,0.91629 2.24042,2.11914 2.82417,3.55575 0.50092,1.23278 0.4819,1.25202 -0.63744,0.64461 z m -6.00816,-18.00169 c 2.20406,-0.1783 2.93317,-0.19144 3.74738,-0.0675 2.53321,0.38553 5.80187,0.002 6.07621,-0.7129 0.1486,-0.38724 -0.0759,-0.60828 -0.83055,-0.8176 -0.41528,-0.11519 -0.84539,-0.24388 -0.9558,-0.28599 -0.11042,-0.0421 -1.04392,-0.0914 -2.07445,-0.1095 -1.2168,-0.0214 -2.88248,-0.17753 -4.75114,-0.44536 -1.5826,-0.22683 -3.457,-0.4528 -4.16534,-0.50216 l -1.28788,-0.0897 0.16837,-0.61716 c 0.39508,-1.44813 0.70936,-1.75476 1.7985,-1.75476 h 0.67196 l 0.39019,-0.76955 c 0.42769,-0.84352 1.02738,-1.60873 1.15821,-1.47789 0.0457,0.0457 0.0233,0.1949 -0.0497,0.33148 -0.0731,0.13658 -0.2277,0.7073 -0.34357,1.26826 -0.35312,1.70953 -0.14213,1.97914 2.04753,2.61643 1.2384,0.36042 2.12841,0.41993 2.73792,0.18307 0.35261,-0.13703 0.3756,-0.18773 0.29399,-0.64835 -0.0487,-0.27482 -0.1195,-0.60508 -0.15734,-0.73389 -0.0448,-0.15271 0.004,-0.23422 0.14097,-0.23422 0.14283,0 0.20978,0.12537 0.20978,0.3928 0,0.21603 0.0578,0.54473 0.12837,0.73043 0.11979,0.31507 0.17281,0.33238 0.79314,0.25891 0.55086,-0.0652 0.7269,-0.0299 1.02728,0.20641 0.49063,0.38593 0.67887,0.36095 1.19896,-0.15914 0.65501,-0.65501 0.91647,-1.68681 0.83838,-3.30855 -0.095,-1.9734 -0.6449,-2.90727 -2.11244,-3.58763 -0.57509,-0.26661 -0.95565,-0.34276 -1.73986,-0.34815 -1.49593,-0.0103 -2.20079,0.23823 -2.68921,0.94813 -0.24384,0.3544 -0.54194,0.61555 -0.76269,0.66815 -0.19932,0.0475 -0.71488,0.25878 -1.14568,0.46955 -1.48585,0.72694 -1.87265,0.50284 -2.88901,-1.67372 -0.67966,-1.45553 -1.08217,-1.89926 -2.00221,-2.2073 -0.67302,-0.22534 -2.16422,-0.17831 -3.82779,0.12072 -6.8537,1.23195 -7.57855,1.28236 -10.50605,0.73072 -2.44181,-0.46012 -3.49308,-0.44535 -4.77271,0.067 -1.93108,0.77325 -5.88424,3.73449 -8.63177,6.46591 -1.86883,1.85786 -2.25315,3.01676 -1.31242,3.95749 0.79534,0.79533 0.10929,0.76736 11.41243,0.46523 2.47883,-0.0663 3.6103,-0.0437 4.46427,0.0892 1.31658,0.20481 1.5618,0.12516 1.62646,-0.5283 0.0561,-0.56729 -0.23026,-0.97854 -0.86459,-1.24151 -1.01054,-0.41893 -2.80185,-1.06804 -3.46077,-1.25405 -0.80997,-0.22866 -3.08603,-0.45875 -4.5504,-0.46 -1.54877,-0.001 -3.30921,-0.15642 -3.18501,-0.28061 0.28235,-0.28232 3.82103,-1.59872 5.37044,-1.99782 1.16353,-0.2997 1.52696,-0.25481 0.96286,0.11893 -0.63798,0.42269 -1.22047,0.99637 -1.11417,1.09731 0.059,0.056 0.75077,0.28648 1.5373,0.51214 1.55761,0.44688 3.96154,1.37405 6.06471,2.3391 1.70928,0.78431 2.97697,1.00637 4.48794,0.78614 0.84449,-0.12308 1.94568,-0.50323 2.25327,-0.77786 0.0272,-0.0243 0.10229,-0.56548 0.16687,-1.20266 0.15461,-1.52534 0.71735,-4.28087 1.05611,-5.17139 0.27655,-0.72699 0.73147,-1.42648 0.85038,-1.30757 0.0367,0.0367 -0.0511,0.72838 -0.19499,1.53711 -0.55282,3.1065 -0.81931,7.26411 -0.50443,7.86984 0.20327,0.39104 0.1628,0.36011 0.74146,0.56648 0.70981,0.25313 3.14573,0.24404 6.46037,-0.0241 z m 2.95151,-4.31769 c 0,-0.13566 0.40763,-0.32047 0.50097,-0.22712 0.0337,0.0336 0.0215,0.12539 -0.027,0.2039 -0.10677,0.17277 -0.47392,0.19076 -0.47392,0.0232 z m -1.07069,-1.15981 c 0,-0.19425 0.0579,-0.30669 0.13384,-0.25977 0.0736,0.0455 0.13383,0.19961 0.13383,0.34248 0,0.14288 -0.0602,0.25977 -0.13383,0.25977 -0.0736,0 -0.13384,-0.15412 -0.13384,-0.34248 z m 2.2752,-1.53121 c 0,-0.44611 0.0595,-0.80301 0.13384,-0.80301 0.0743,0 0.13383,0.3569 0.13383,0.80301 0,0.44612 -0.0595,0.80301 -0.13383,0.80301 -0.0744,0 -0.13384,-0.35689 -0.13384,-0.80301 z m 0,-2.54286 c 0,-0.14722 0.0602,-0.26767 0.13384,-0.26767 0.0736,0 0.13383,0.12045 0.13383,0.26767 0,0.14722 -0.0602,0.26767 -0.13383,0.26767 -0.0736,0 -0.13384,-0.12045 -0.13384,-0.26767 z"
       id="path1038"
       sodipodi:nodetypes="cssscssssssssscsssssssccsssccsssccssccsssssscccsssssssssssscssssssssssssccssccsscscssccsscssccccccssscssssscccsssssccssssscscssssscssssssccsssssccsscsscsssscsscccssssssssssscssccssscssssssssssscssccccsccsssssssssssssss" />
  </g>
</svg>
